<mxfile host="www.draw.io" modified="2020-01-10T09:08:03.691Z" agent="Mozilla/5.0 (Windows NT 6.1; Win64; x64) AppleWebKit/537.36 (KHTML, like Gecko) Chrome/79.0.3945.117 Safari/537.36" etag="Ib7rUo3RUcY-ZaV5zWV1" version="12.5.1" type="github">
  <diagram name="Page-1" id="e7e014a7-5840-1c2e-5031-d8a46d1fe8dd">
    <mxGraphModel dx="1296" dy="709" grid="1" gridSize="10" guides="1" tooltips="1" connect="1" arrows="1" fold="1" page="1" pageScale="1" pageWidth="1169" pageHeight="826" background="#ffffff" math="0" shadow="0">
      <root>
        <mxCell id="0"/>
        <mxCell id="1" parent="0"/>
        <mxCell id="ie0VM2NiUkhbdAI-yJ1A-50" style="edgeStyle=orthogonalEdgeStyle;rounded=0;orthogonalLoop=1;jettySize=auto;html=1;" edge="1" parent="1" source="ie0VM2NiUkhbdAI-yJ1A-43" target="ie0VM2NiUkhbdAI-yJ1A-45">
          <mxGeometry relative="1" as="geometry"/>
        </mxCell>
        <mxCell id="ie0VM2NiUkhbdAI-yJ1A-51" value="&lt;font style=&quot;font-size: 15px&quot;&gt;MainMenu&lt;/font&gt;" style="text;html=1;align=center;verticalAlign=middle;resizable=0;points=[];labelBackgroundColor=#ffffff;" vertex="1" connectable="0" parent="ie0VM2NiUkhbdAI-yJ1A-50">
          <mxGeometry x="-0.128" y="2" relative="1" as="geometry">
            <mxPoint as="offset"/>
          </mxGeometry>
        </mxCell>
        <mxCell id="ie0VM2NiUkhbdAI-yJ1A-43" value="&lt;font style=&quot;font-size: 29px&quot;&gt;0&lt;/font&gt;" style="ellipse;shape=umlEntity;whiteSpace=wrap;html=1;fillColor=#e1d5e7;strokeColor=#9673a6;" vertex="1" parent="1">
          <mxGeometry x="310" y="170" width="80" height="80" as="geometry"/>
        </mxCell>
        <mxCell id="ie0VM2NiUkhbdAI-yJ1A-44" value="&lt;font style=&quot;font-size: 29px&quot;&gt;7&lt;/font&gt;" style="ellipse;shape=umlEntity;whiteSpace=wrap;html=1;fillColor=#e1d5e7;strokeColor=#9673a6;" vertex="1" parent="1">
          <mxGeometry x="290" y="540" width="80" height="80" as="geometry"/>
        </mxCell>
        <mxCell id="ie0VM2NiUkhbdAI-yJ1A-53" style="edgeStyle=orthogonalEdgeStyle;rounded=0;orthogonalLoop=1;jettySize=auto;html=1;entryX=0.5;entryY=1;entryDx=0;entryDy=0;" edge="1" parent="1" source="ie0VM2NiUkhbdAI-yJ1A-45" target="ie0VM2NiUkhbdAI-yJ1A-46">
          <mxGeometry relative="1" as="geometry"/>
        </mxCell>
        <mxCell id="ie0VM2NiUkhbdAI-yJ1A-60" value="&lt;font style=&quot;font-size: 15px&quot;&gt;AddTask&lt;/font&gt;" style="text;html=1;align=center;verticalAlign=middle;resizable=0;points=[];labelBackgroundColor=#ffffff;" vertex="1" connectable="0" parent="ie0VM2NiUkhbdAI-yJ1A-53">
          <mxGeometry x="-0.1773" y="31" relative="1" as="geometry">
            <mxPoint x="33" y="-31" as="offset"/>
          </mxGeometry>
        </mxCell>
        <mxCell id="ie0VM2NiUkhbdAI-yJ1A-56" style="edgeStyle=orthogonalEdgeStyle;rounded=0;orthogonalLoop=1;jettySize=auto;html=1;entryX=0.5;entryY=0;entryDx=0;entryDy=0;" edge="1" parent="1" source="ie0VM2NiUkhbdAI-yJ1A-45" target="ie0VM2NiUkhbdAI-yJ1A-47">
          <mxGeometry relative="1" as="geometry"/>
        </mxCell>
        <mxCell id="ie0VM2NiUkhbdAI-yJ1A-61" value="&lt;font style=&quot;font-size: 15px&quot;&gt;RemoveTask&lt;/font&gt;" style="text;html=1;align=center;verticalAlign=middle;resizable=0;points=[];labelBackgroundColor=#ffffff;" vertex="1" connectable="0" parent="ie0VM2NiUkhbdAI-yJ1A-56">
          <mxGeometry x="0.3779" y="5" relative="1" as="geometry">
            <mxPoint as="offset"/>
          </mxGeometry>
        </mxCell>
        <mxCell id="ie0VM2NiUkhbdAI-yJ1A-57" style="edgeStyle=orthogonalEdgeStyle;rounded=0;orthogonalLoop=1;jettySize=auto;html=1;entryX=0.5;entryY=0;entryDx=0;entryDy=0;" edge="1" parent="1" source="ie0VM2NiUkhbdAI-yJ1A-45" target="ie0VM2NiUkhbdAI-yJ1A-48">
          <mxGeometry relative="1" as="geometry"/>
        </mxCell>
        <mxCell id="ie0VM2NiUkhbdAI-yJ1A-62" value="&lt;font style=&quot;font-size: 15px&quot;&gt;ChangeTask&lt;/font&gt;" style="text;html=1;align=center;verticalAlign=middle;resizable=0;points=[];labelBackgroundColor=#ffffff;" vertex="1" connectable="0" parent="ie0VM2NiUkhbdAI-yJ1A-57">
          <mxGeometry x="-0.2639" y="-28" relative="1" as="geometry">
            <mxPoint x="29" y="29" as="offset"/>
          </mxGeometry>
        </mxCell>
        <mxCell id="ie0VM2NiUkhbdAI-yJ1A-58" style="edgeStyle=orthogonalEdgeStyle;rounded=0;orthogonalLoop=1;jettySize=auto;html=1;entryX=0.5;entryY=0;entryDx=0;entryDy=0;" edge="1" parent="1" source="ie0VM2NiUkhbdAI-yJ1A-45" target="ie0VM2NiUkhbdAI-yJ1A-44">
          <mxGeometry relative="1" as="geometry"/>
        </mxCell>
        <mxCell id="ie0VM2NiUkhbdAI-yJ1A-59" value="&lt;font style=&quot;font-size: 15px&quot;&gt;Quit&lt;/font&gt;" style="text;html=1;align=center;verticalAlign=middle;resizable=0;points=[];labelBackgroundColor=#ffffff;" vertex="1" connectable="0" parent="ie0VM2NiUkhbdAI-yJ1A-58">
          <mxGeometry x="-0.187" y="-4" relative="1" as="geometry">
            <mxPoint as="offset"/>
          </mxGeometry>
        </mxCell>
        <mxCell id="ie0VM2NiUkhbdAI-yJ1A-70" style="edgeStyle=orthogonalEdgeStyle;rounded=0;orthogonalLoop=1;jettySize=auto;html=1;entryX=0.5;entryY=1;entryDx=0;entryDy=0;" edge="1" parent="1" source="ie0VM2NiUkhbdAI-yJ1A-45" target="ie0VM2NiUkhbdAI-yJ1A-69">
          <mxGeometry relative="1" as="geometry"/>
        </mxCell>
        <mxCell id="ie0VM2NiUkhbdAI-yJ1A-71" value="&lt;font style=&quot;font-size: 15px&quot;&gt;Calendar&lt;/font&gt;" style="text;html=1;align=center;verticalAlign=middle;resizable=0;points=[];labelBackgroundColor=#ffffff;" vertex="1" connectable="0" parent="ie0VM2NiUkhbdAI-yJ1A-70">
          <mxGeometry x="0.4452" y="29" relative="1" as="geometry">
            <mxPoint x="34" y="-29" as="offset"/>
          </mxGeometry>
        </mxCell>
        <mxCell id="ie0VM2NiUkhbdAI-yJ1A-77" style="edgeStyle=orthogonalEdgeStyle;rounded=0;orthogonalLoop=1;jettySize=auto;html=1;entryX=1;entryY=0.5;entryDx=0;entryDy=0;" edge="1" parent="1" source="ie0VM2NiUkhbdAI-yJ1A-45" target="ie0VM2NiUkhbdAI-yJ1A-75">
          <mxGeometry relative="1" as="geometry"/>
        </mxCell>
        <mxCell id="ie0VM2NiUkhbdAI-yJ1A-78" value="ShowTasks" style="text;html=1;align=center;verticalAlign=middle;resizable=0;points=[];labelBackgroundColor=#ffffff;fontSize=15;" vertex="1" connectable="0" parent="ie0VM2NiUkhbdAI-yJ1A-77">
          <mxGeometry x="0.2948" y="4" relative="1" as="geometry">
            <mxPoint as="offset"/>
          </mxGeometry>
        </mxCell>
        <mxCell id="ie0VM2NiUkhbdAI-yJ1A-45" value="&lt;font style=&quot;font-size: 29px&quot;&gt;1&lt;/font&gt;" style="ellipse;shape=umlEntity;whiteSpace=wrap;html=1;" vertex="1" parent="1">
          <mxGeometry x="460" y="320" width="80" height="80" as="geometry"/>
        </mxCell>
        <mxCell id="ie0VM2NiUkhbdAI-yJ1A-63" style="edgeStyle=orthogonalEdgeStyle;rounded=0;orthogonalLoop=1;jettySize=auto;html=1;entryX=1;entryY=0;entryDx=0;entryDy=0;" edge="1" parent="1" source="ie0VM2NiUkhbdAI-yJ1A-46" target="ie0VM2NiUkhbdAI-yJ1A-45">
          <mxGeometry relative="1" as="geometry"/>
        </mxCell>
        <mxCell id="ie0VM2NiUkhbdAI-yJ1A-64" value="&lt;font style=&quot;font-size: 15px&quot;&gt;Back&lt;/font&gt;" style="text;html=1;align=center;verticalAlign=middle;resizable=0;points=[];labelBackgroundColor=#ffffff;" vertex="1" connectable="0" parent="ie0VM2NiUkhbdAI-yJ1A-63">
          <mxGeometry x="0.1084" y="4" relative="1" as="geometry">
            <mxPoint as="offset"/>
          </mxGeometry>
        </mxCell>
        <mxCell id="ie0VM2NiUkhbdAI-yJ1A-46" value="&lt;font style=&quot;font-size: 29px&quot;&gt;2&lt;/font&gt;" style="ellipse;shape=umlEntity;whiteSpace=wrap;html=1;" vertex="1" parent="1">
          <mxGeometry x="570" y="180" width="80" height="80" as="geometry"/>
        </mxCell>
        <mxCell id="ie0VM2NiUkhbdAI-yJ1A-67" style="edgeStyle=orthogonalEdgeStyle;rounded=0;orthogonalLoop=1;jettySize=auto;html=1;" edge="1" parent="1" source="ie0VM2NiUkhbdAI-yJ1A-47">
          <mxGeometry relative="1" as="geometry">
            <mxPoint x="500" y="520" as="targetPoint"/>
            <Array as="points">
              <mxPoint x="720" y="575"/>
              <mxPoint x="500" y="575"/>
            </Array>
          </mxGeometry>
        </mxCell>
        <mxCell id="ie0VM2NiUkhbdAI-yJ1A-68" value="&lt;font style=&quot;font-size: 15px&quot;&gt;Back&lt;/font&gt;" style="text;html=1;align=center;verticalAlign=middle;resizable=0;points=[];labelBackgroundColor=#ffffff;" vertex="1" connectable="0" parent="ie0VM2NiUkhbdAI-yJ1A-67">
          <mxGeometry x="-0.4281" y="-29" relative="1" as="geometry">
            <mxPoint as="offset"/>
          </mxGeometry>
        </mxCell>
        <mxCell id="ie0VM2NiUkhbdAI-yJ1A-47" value="&lt;font style=&quot;font-size: 29px&quot;&gt;3&lt;/font&gt;" style="ellipse;shape=umlEntity;whiteSpace=wrap;html=1;" vertex="1" parent="1">
          <mxGeometry x="680" y="380" width="80" height="80" as="geometry"/>
        </mxCell>
        <mxCell id="ie0VM2NiUkhbdAI-yJ1A-65" style="edgeStyle=orthogonalEdgeStyle;rounded=0;orthogonalLoop=1;jettySize=auto;html=1;entryX=0.5;entryY=1;entryDx=0;entryDy=0;" edge="1" parent="1" source="ie0VM2NiUkhbdAI-yJ1A-48" target="ie0VM2NiUkhbdAI-yJ1A-45">
          <mxGeometry relative="1" as="geometry"/>
        </mxCell>
        <mxCell id="ie0VM2NiUkhbdAI-yJ1A-66" value="&lt;font style=&quot;font-size: 15px&quot;&gt;Back&lt;/font&gt;" style="text;html=1;align=center;verticalAlign=middle;resizable=0;points=[];labelBackgroundColor=#ffffff;" vertex="1" connectable="0" parent="ie0VM2NiUkhbdAI-yJ1A-65">
          <mxGeometry x="-0.2663" y="-39" relative="1" as="geometry">
            <mxPoint x="-39" y="-39" as="offset"/>
          </mxGeometry>
        </mxCell>
        <mxCell id="ie0VM2NiUkhbdAI-yJ1A-48" value="&lt;font style=&quot;font-size: 29px&quot;&gt;4&lt;/font&gt;" style="ellipse;shape=umlEntity;whiteSpace=wrap;html=1;" vertex="1" parent="1">
          <mxGeometry x="570" y="480" width="80" height="80" as="geometry"/>
        </mxCell>
        <mxCell id="ie0VM2NiUkhbdAI-yJ1A-73" style="edgeStyle=orthogonalEdgeStyle;rounded=0;orthogonalLoop=1;jettySize=auto;html=1;" edge="1" parent="1" source="ie0VM2NiUkhbdAI-yJ1A-69">
          <mxGeometry relative="1" as="geometry">
            <mxPoint x="530" y="220" as="targetPoint"/>
            <Array as="points">
              <mxPoint x="800" y="120"/>
              <mxPoint x="530" y="120"/>
            </Array>
          </mxGeometry>
        </mxCell>
        <mxCell id="ie0VM2NiUkhbdAI-yJ1A-69" value="&lt;span style=&quot;font-size: 29px&quot;&gt;5&lt;/span&gt;" style="ellipse;shape=umlEntity;whiteSpace=wrap;html=1;" vertex="1" parent="1">
          <mxGeometry x="760" y="180" width="80" height="80" as="geometry"/>
        </mxCell>
        <mxCell id="ie0VM2NiUkhbdAI-yJ1A-74" value="&lt;font style=&quot;font-size: 15px&quot;&gt;Back&lt;/font&gt;" style="text;html=1;align=center;verticalAlign=middle;resizable=0;points=[];autosize=1;" vertex="1" parent="1">
          <mxGeometry x="613" y="114" width="50" height="20" as="geometry"/>
        </mxCell>
        <mxCell id="ie0VM2NiUkhbdAI-yJ1A-79" style="edgeStyle=orthogonalEdgeStyle;rounded=0;orthogonalLoop=1;jettySize=auto;html=1;entryX=0.5;entryY=1;entryDx=0;entryDy=0;" edge="1" parent="1" source="ie0VM2NiUkhbdAI-yJ1A-75" target="ie0VM2NiUkhbdAI-yJ1A-45">
          <mxGeometry relative="1" as="geometry">
            <mxPoint x="360" y="670" as="targetPoint"/>
            <Array as="points">
              <mxPoint x="280" y="300"/>
              <mxPoint x="280" y="660"/>
              <mxPoint x="500" y="660"/>
            </Array>
          </mxGeometry>
        </mxCell>
        <mxCell id="ie0VM2NiUkhbdAI-yJ1A-80" value="&lt;font style=&quot;font-size: 15px&quot;&gt;Back&lt;/font&gt;" style="text;html=1;align=center;verticalAlign=middle;resizable=0;points=[];labelBackgroundColor=#ffffff;" vertex="1" connectable="0" parent="ie0VM2NiUkhbdAI-yJ1A-79">
          <mxGeometry x="0.2079" y="4" relative="1" as="geometry">
            <mxPoint as="offset"/>
          </mxGeometry>
        </mxCell>
        <mxCell id="ie0VM2NiUkhbdAI-yJ1A-75" value="&lt;span style=&quot;font-size: 29px&quot;&gt;6&lt;/span&gt;" style="ellipse;shape=umlEntity;whiteSpace=wrap;html=1;" vertex="1" parent="1">
          <mxGeometry x="290" y="260" width="80" height="80" as="geometry"/>
        </mxCell>
        <mxCell id="ie0VM2NiUkhbdAI-yJ1A-82" value="&lt;div style=&quot;text-align: justify&quot;&gt;0. Початок роботи.&lt;/div&gt;&lt;div style=&quot;text-align: justify&quot;&gt;1. Головне меню.&lt;/div&gt;&lt;div style=&quot;text-align: justify&quot;&gt;2. Нова задача.&lt;/div&gt;&lt;div style=&quot;text-align: justify&quot;&gt;3. Видалення задачи.&lt;/div&gt;&lt;div style=&quot;text-align: justify&quot;&gt;4. Змінити задачу.&lt;/div&gt;&lt;div style=&quot;text-align: justify&quot;&gt;5. Календар(from, to)&lt;/div&gt;&lt;div style=&quot;text-align: justify&quot;&gt;6. Відобразити всі задачі.&lt;/div&gt;&lt;div style=&quot;text-align: justify&quot;&gt;7. Завершення роботи.&lt;/div&gt;" style="rounded=0;whiteSpace=wrap;html=1;fontSize=15;align=center;" vertex="1" parent="1">
          <mxGeometry x="900" y="80" width="200" height="150" as="geometry"/>
        </mxCell>
      </root>
    </mxGraphModel>
  </diagram>
</mxfile>
